HIERARCHY
ROOT root
{
	OFFSET 0.000000 0.000000 0.000000
	CHANNELS 6 Xposition Yposition Zposition Zrotation Yrotation Xrotation
	JOINT lhip
	{
		OFFSET 0.058581 -0.082280 -0.017664
		CHANNELS 3 Zrotation Yrotation Xrotation
		JOINT lknee
		{
			OFFSET 0.043451 -0.386469 0.008037
			CHANNELS 3 Zrotation Yrotation Xrotation
			JOINT lankle
			{
				OFFSET -0.014790 -0.426874 -0.037428
				CHANNELS 3 Zrotation Yrotation Xrotation
				JOINT ltoe
				{
					OFFSET 0.041054 -0.060286 0.122042
					CHANNELS 3 Zrotation Yrotation Xrotation
					End Site
					{
						OFFSET 0.000000 0.000000 0.000000
					}
				}
			}
		}
	}
	JOINT rhip
	{
		OFFSET -0.060310 -0.090513 -0.013543
		CHANNELS 3 Zrotation Yrotation Xrotation
		JOINT rknee
		{
			OFFSET -0.043257 -0.383688 -0.004843
			CHANNELS 3 Zrotation Yrotation Xrotation
			JOINT rankle
			{
				OFFSET 0.019056 -0.420046 -0.034562
				CHANNELS 3 Zrotation Yrotation Xrotation
				JOINT rtoe
				{
					OFFSET -0.034840 -0.062106 0.130323
					CHANNELS 3 Zrotation Yrotation Xrotation
					End Site
					{
						OFFSET 0.000000 0.000000 0.000000
					}
				}
			}
		}
	}
	JOINT lowerback
	{
		OFFSET 0.004439 0.124404 -0.038385
		CHANNELS 3 Zrotation Yrotation Xrotation
		JOINT upperback
		{
			OFFSET 0.004488 0.137956 0.026820
			CHANNELS 3 Zrotation Yrotation Xrotation
			JOINT chest
			{
				OFFSET -0.002265 0.056032 0.002855
				CHANNELS 3 Zrotation Yrotation Xrotation
				JOINT lowerneck
				{
					OFFSET -0.013390 0.211636 -0.033468
					CHANNELS 3 Zrotation Yrotation Xrotation
					JOINT upperneck
					{
						OFFSET 0.010113 0.088937 0.050410
						CHANNELS 3 Zrotation Yrotation Xrotation
						End Site
						{
							OFFSET 0.000000 0.000000 0.000000
						}
					}
				}
				JOINT lclavicle
				{
					OFFSET 0.071702 0.114000 -0.018898
					CHANNELS 3 Zrotation Yrotation Xrotation
					JOINT lshoulder
					{
						OFFSET 0.122921 0.045205 -0.019046
						CHANNELS 3 Zrotation Yrotation Xrotation
						JOINT lelbow
						{
							OFFSET 0.255332 -0.015649 -0.022946
							CHANNELS 3 Zrotation Yrotation Xrotation
							JOINT lwrist
							{
								OFFSET 0.265709 0.012698 -0.007375
								CHANNELS 3 Zrotation Yrotation Xrotation
								End Site
								{
									OFFSET 0.000000 0.000000 0.000000
								}
							}
						}
					}
				}
				JOINT rclavicle
				{
					OFFSET -0.082954 0.112472 -0.023707
					CHANNELS 3 Zrotation Yrotation Xrotation
					JOINT rshoulder
					{
						OFFSET -0.113228 0.046853 -0.008472
						CHANNELS 3 Zrotation Yrotation Xrotation
						JOINT relbow
						{
							OFFSET -0.260127 -0.014369 -0.031269
							CHANNELS 3 Zrotation Yrotation Xrotation
							JOINT rwrist
							{
								OFFSET -0.269108 0.006794 -0.006027
								CHANNELS 3 Zrotation Yrotation Xrotation
								End Site
								{
									OFFSET 0.000000 0.000000 0.000000
								}
							}
						}
					}
				}
			}
		}
	}
}
MOTION
Frames: 13
Frame Time: 0.033333
-0.083353 -0.617327 0.920885 169.602787 1.364814 87.680679 3.599986 -0.434742 -26.164415 -6.732811 6.622281 46.749546 5.073683 16.617036 -29.444219 0.000000 -0.000000 0.000000 3.925196 7.437145 -29.570436 2.915385 3.318803 49.786009 0.908389 -9.804010 -21.063660 0.000000 -0.000000 0.000000 -5.070418 -0.776948 32.999597 3.329540 -8.049210 -0.259641 2.672925 -4.283723 -1.127400 -7.474503 14.973458 -10.429907 5.710468 8.558044 -1.331029 -13.085160 -26.460196 -4.321544 -19.306259 -32.586417 -8.599126 42.642857 -46.405801 -43.488205 7.285221 -2.959168 -15.105950 23.263884 11.808691 2.610754 50.917343 -1.258516 15.624099 -8.212177 43.249078 12.646907 14.104802 -1.684876 2.557936 
-0.082548 -0.619657 0.919710 169.752759 1.231001 87.683817 3.601056 -0.492139 -26.496617 -6.759003 6.732366 47.031429 5.090078 16.473005 -29.424662 0.000000 -0.000000 0.000000 3.790454 7.678139 -30.001282 2.866183 3.106704 50.273269 0.918096 -10.015559 -20.915506 0.000000 -0.000000 0.000000 -5.263670 -0.774584 33.538536 3.301157 -8.078702 -0.485143 2.655430 -4.256787 -1.009679 -7.580666 14.996964 -10.800887 5.798151 8.480735 -1.556483 -13.022808 -26.629175 -4.400249 -18.799542 -32.805077 -8.812053 42.938244 -46.375596 -43.920381 7.553864 -3.241945 -14.982194 23.170246 11.896560 2.381583 51.110892 -1.225687 15.968450 -8.204877 44.271572 12.631902 13.298654 -1.417888 2.513052 
-0.081129 -0.622226 0.917501 169.911823 1.120058 87.524506 3.669190 -0.463701 -26.840837 -6.797277 6.836755 47.626299 5.040894 16.326178 -29.485643 0.000000 -0.000000 0.000000 3.815919 7.832245 -30.419307 2.702861 2.921643 51.045421 0.884604 -10.021115 -20.828637 0.000000 -0.000000 0.000000 -5.458761 -0.707128 34.323769 3.231842 -8.105099 -0.677895 2.652490 -4.234462 -0.828435 -7.654528 15.099539 -11.328057 5.928545 8.228677 -1.852342 -12.818723 -26.855849 -4.637575 -18.426650 -32.945348 -8.998866 43.380104 -46.485520 -44.487679 7.790488 -3.332007 -14.838198 23.153425 12.110899 2.218521 51.298429 -1.121103 16.178050 -8.328928 45.278205 12.540336 12.681652 -1.016133 2.423811 
-0.078520 -0.626819 0.912567 170.260196 1.037042 86.956723 3.941334 -0.477134 -27.391262 -6.892933 6.948421 49.177819 4.810676 16.043553 -29.808950 0.000000 -0.000000 0.000000 3.894197 7.792731 -30.957223 2.486210 2.283698 52.585234 1.115617 -9.876427 -20.353680 0.000000 -0.000000 0.000000 -5.620918 -0.491406 35.934724 3.170802 -8.215797 -0.628049 2.702883 -4.265576 -0.720732 -7.955092 15.136387 -12.259967 6.125467 7.873607 -2.654771 -12.634811 -27.480116 -4.875242 -17.327916 -32.871782 -9.523839 44.202225 -46.574159 -45.664994 7.695534 -3.487215 -14.619276 23.162350 12.809637 1.891195 51.308133 -1.097508 16.630598 -8.513407 46.691502 12.177853 11.904281 -0.692271 2.462188 
-0.077650 -0.628747 0.910420 170.381992 1.041189 86.759591 4.076981 -0.478146 -27.678024 -6.939723 6.990276 49.821913 4.755586 15.963064 -29.889848 0.000000 -0.000000 0.000000 3.892337 7.866544 -31.226120 2.469987 1.942837 53.177690 1.269330 -9.882019 -20.227727 0.000000 -0.000000 0.000000 -5.638797 -0.432468 36.540928 3.147083 -8.212664 -0.609795 2.682555 -4.231625 -0.641803 -7.996825 15.150830 -12.767376 6.195970 7.636404 -2.845877 -12.536375 -27.728005 -5.010255 -16.901419 -32.903511 -9.668181 44.386659 -46.568188 -46.087174 7.712770 -3.598888 -14.645461 23.219768 13.099798 1.805964 51.212461 -1.065577 16.757256 -8.602357 47.144987 12.037133 11.633267 -0.587672 2.576419 
-0.075915 -0.633185 0.906007 170.814592 1.213618 86.415944 4.396851 -0.387861 -28.488532 -6.925289 6.835717 51.287074 4.649679 15.676282 -29.961429 0.000000 -0.000000 0.000000 3.993906 7.947982 -31.631530 2.392649 1.296118 53.933532 1.063522 -10.106406 -20.329666 0.000000 -0.000000 0.000000 -5.421050 -0.383815 37.807983 3.115365 -8.313511 -0.505694 2.668749 -4.196547 -0.530323 -8.084830 15.104685 -13.935122 6.287863 7.281976 -3.283695 -12.504107 -28.450655 -5.160601 -15.609996 -32.785355 -10.277982 44.538898 -46.555853 -46.640779 7.455101 -3.764736 -14.836658 23.310346 13.884261 1.852504 50.890246 -0.904578 16.808173 -8.708311 47.912577 12.003562 10.909516 -0.338166 2.664341 
-0.074863 -0.638849 0.902425 171.477282 1.277446 86.323231 4.507588 -0.543426 -29.639500 -6.884251 6.537265 52.569714 4.534042 15.265015 -29.496882 0.000000 -0.000000 0.000000 3.830165 7.629830 -32.072149 2.475891 0.929752 54.029557 0.378803 -10.316957 -20.564205 0.000000 -0.000000 0.000000 -5.017160 -0.273118 39.096540 3.072690 -8.529017 -0.811343 2.594794 -4.292673 -0.099396 -8.414085 14.938970 -15.136853 6.719382 6.885172 -4.036514 -12.467586 -29.616176 -5.191990 -13.775707 -32.566706 -11.101059 44.299463 -46.205960 -47.291656 6.980264 -3.853549 -14.969098 23.281423 14.929134 1.887797 50.625656 -0.846630 16.725152 -9.144520 48.397083 11.400092 10.380169 -0.376321 2.997878 
-0.074677 -0.646364 0.900677 172.525485 1.192047 86.691978 4.527965 -1.280071 -31.364769 -7.016881 6.253562 53.424775 4.571347 14.630945 -28.020359 0.000000 -0.000000 0.000000 3.100611 7.326799 -32.945424 2.939460 0.326032 53.600663 0.010733 -10.806561 -20.002005 0.000000 -0.000000 0.000000 -4.787143 -0.237743 40.014180 3.228832 -8.696990 -1.372904 2.505099 -4.459939 1.125240 -8.781251 14.642666 -17.337488 7.118802 6.314950 -4.513992 -12.030300 -30.779624 -5.381829 -11.699494 -33.053190 -11.810483 43.881919 -45.215412 -48.095376 7.277948 -3.705067 -15.509125 22.935613 15.993273 1.524769 50.405922 -0.569219 17.301722 -10.227026 48.145153 9.834445 10.377731 -0.180496 2.158954 
-0.076116 -0.655016 0.903735 174.395285 1.070965 87.485780 4.200200 -2.503166 -33.208299 -7.490588 5.175755 53.247732 4.463751 13.453041 -25.418934 0.000000 -0.000000 0.000000 2.158280 6.636958 -33.730305 3.208361 -0.350380 52.112454 -0.165472 -11.561414 -18.603226 0.000000 -0.000000 0.000000 -4.403573 -0.397491 41.133327 3.678016 -9.109269 -1.186431 2.911617 -4.769756 0.747070 -9.314624 13.459844 -18.987953 7.637074 6.554051 -5.498866 -11.410187 -32.398016 -5.401221 -10.241183 -32.998525 -12.518584 43.746862 -44.532885 -49.376991 8.265927 -3.454756 -15.907166 22.496536 17.263644 1.497451 49.864451 -0.836375 17.103039 -11.750362 48.287333 7.976593 11.677745 -0.861595 2.797031 
-0.078898 -0.665188 0.912298 176.581402 0.966445 88.685779 3.847500 -3.657893 -35.094723 -8.095087 3.666028 52.096292 3.443422 11.292460 -21.779609 0.000000 -0.000000 0.000000 1.316328 5.691716 -34.168984 2.734201 -0.977651 49.130249 -0.029124 -11.614252 -16.457104 0.000000 -0.000000 0.000000 -3.641588 -0.437806 42.556548 4.334296 -9.774347 -1.272565 3.593124 -5.167311 0.030434 -9.886568 12.771716 -20.433429 7.907962 6.508567 -6.934786 -10.545525 -33.864206 -5.419140 -9.178169 -33.050412 -13.080030 43.728128 -44.050563 -50.058851 8.072303 -3.631751 -16.546037 22.158922 18.328938 1.400424 48.962354 -0.951479 16.498277 -12.720027 47.917592 6.316685 12.215978 -1.051185 2.911574 
-0.082743 -0.676127 0.925802 178.589616 0.710326 90.053520 3.561761 -4.477319 -36.324455 -9.350944 1.820569 49.955071 1.061993 8.807651 -19.515041 0.000000 -0.000000 0.000000 0.463677 4.902870 -34.016889 1.957226 -1.321380 44.776952 0.706076 -11.448530 -13.815889 0.000000 -0.000000 0.000000 -3.169724 -0.443938 43.848398 5.110963 -10.399595 -1.115886 4.530047 -5.397480 -0.757856 -10.484504 12.281724 -21.666357 7.878163 6.534108 -8.712077 -9.774459 -34.911986 -5.592122 -8.190705 -33.068160 -13.383686 43.796877 -44.109774 -50.333974 8.314109 -4.022666 -16.906799 22.009635 19.272068 1.375871 47.628150 -0.627298 15.970951 -13.599066 47.126975 4.558107 11.530502 -1.078732 3.079749 
-0.088858 -0.688353 0.941144 -179.576412 0.546822 92.004868 3.565364 -5.094094 -37.495936 -11.117403 0.136708 48.288223 -0.690689 6.415040 -19.196740 0.000000 -0.000000 0.000000 -0.423165 4.158511 -34.058479 1.381869 -1.502749 39.537157 1.745860 -11.374723 -10.633343 0.000000 -0.000000 0.000000 -2.332151 -0.739137 44.337176 5.932086 -10.910743 -1.145865 5.251270 -5.576229 -1.204499 -11.062840 11.607889 -22.524632 7.586606 6.747991 -10.375017 -9.360945 -35.735585 -5.736882 -7.287413 -33.151060 -13.437549 43.875011 -44.345099 -50.506327 8.374604 -4.478189 -17.034260 21.816505 20.231165 1.447394 46.171022 -0.188268 15.581394 -15.158778 46.200022 1.950301 10.893225 -1.179660 3.312227 
-0.096301 -0.700570 0.955888 -178.119780 0.266702 94.057382 3.313847 -5.309713 -38.375319 -11.375193 -0.099278 49.479722 -0.779725 6.763364 -19.771815 0.000000 -0.000000 0.000000 -1.360918 3.215336 -34.104279 1.041021 -1.464576 34.268533 2.836391 -11.291999 -7.195831 0.000000 -0.000000 0.000000 -1.504877 -0.966298 44.516220 6.570005 -11.183021 -1.654477 5.840154 -5.547956 -1.292509 -11.354779 10.683828 -23.298329 7.486569 6.958530 -11.249068 -8.684040 -36.090126 -5.804041 -6.916456 -33.829769 -13.419218 43.212471 -45.149092 -49.714426 9.330374 -4.499016 -17.138875 21.543448 20.324026 1.295483 44.805039 0.350786 15.165782 -16.279803 45.631674 -0.086689 9.924469 -1.075794 3.203079 
